<svg width="1920" height="1080" viewBox="0 0 1920 1080" xmlns="http://www.w3.org/2000/svg"><path d="M398.3087028337321,5.999999999999932C393.612639777824,49.64588260967692,263.00889913469075,131.57968956108792,242.7781115598307,186.52624115342505C222.54732398497066,241.47279274576218,298.0734338294427,313.97935186806893,276.9239773845718,335.6793095540228C255.7745209397009,357.3792672399766,162.56839807559558,307.0149204009681,115.88137289060529,316.72598726914805C69.194347705615,326.437054137328,33.18729056933017,387.6067875714331,-3.1981737253699976,393.9457107631025C-39.58363802007017,400.28463395477195,-62.06465061766875,379.8472332780687,-102.43141287759573,354.7595264191645C-142.79817513752272,329.6718195602603,-208.83688730935137,286.4682615612348,-245.39874728493191,243.41946960967746C-281.96060726051246,200.37067765812012,-307.0681388993715,142.53116698754332,-321.802572731079,96.46677470982047C-336.53700656278653,50.40238243209762,-340.20888358192275,17.014156663256657,-333.80535027517715,-32.96688405665965C-327.40181696843155,-82.94792477657596,-316.5989312698015,-155.12069588259325,-283.3813728906053,-203.41946960967738C-250.16381451140913,-251.7182433367615,-178.86386652753933,-301.67181956026025,-134.50000000000017,-322.75952641916444C-90.13613347246101,-343.84723327806864,-63.0950692071379,-332.7979328978495,-17.19817372537034,-329.9457107631025C28.69872175639722,-327.09348862835554,92.86101437228155,-317.5239271455292,140.8813728906052,-305.64619361068264C188.90173140892887,-293.76846007583606,249.24512455045928,-297.0621660716972,270.9239773845717,-258.67930955402295C292.6028302186841,-220.29645303634865,249.7237023204196,-119.4622727636407,270.95448989527966,-75.34905450463688C292.18527747013974,-31.235836245633067,403.0047658896403,-37.64588260967706,398.3087028337321,5.999999999999932C393.612639777824,49.64588260967692,263.00889913469075,131.57968956108792,242.7781115598307,186.52624115342505" fill="#2ec27e"/></svg>