<svg width="1920" height="1080" viewBox="0 0 1920 1080" xmlns="http://www.w3.org/2000/svg"><path d="M1372,556.9999999999999C1368.276432091145,623.0376359478735,1310.738914278969,694.1863652152001,1258.9252587164856,749.1804620547889C1207.111603154002,804.1745588943777,1118.0968142977379,866.8680703101365,1061.118066625099,886.9645810375325C1004.1393189524599,907.0610917649285,965.983998481898,904.7727939057354,917.052772680652,869.7595264191646C868.121546879406,834.7462589325937,809.6036293968509,742.3053168268702,767.530711817623,676.8849761181076C725.4577942383951,611.464635409345,655.2670029293533,548.5115659228009,664.6152672052843,477.2374821665889C673.9635314812153,405.9633984103769,764.4982996433199,293.0570076016197,823.6202974732087,249.24047358083556C882.7422953030974,205.42393956005142,943.072859401882,197.05258257743205,1019.3472541846168,214.33827804188405C1095.6216489673513,231.62397350633606,1222.4912085337194,295.8443593745283,1281.2666661696167,352.95464636754764C1340.042123805514,410.06493336056695,1375.723567908855,490.96236405212636,1372,556.9999999999999C1368.276432091145,623.0376359478735,1310.738914278969,694.1863652152001,1258.9252587164856,749.1804620547889" fill="#2ec27e"/></svg>