<svg width="1920" height="1080" viewBox="0 0 1920 1080" xmlns="http://www.w3.org/2000/svg"><rect width="1920" height="1080" fill="#d6d1d3"/><path d="M 0,1080 C 0,1080 0,180 0,180 C 112.74615384615385,196.60000000000002 225.4923076923077,213.20000000000002 332,205 C 438.5076923076923,196.79999999999998 538.7769230769231,163.79999999999998 642,171 C 745.2230769230769,178.20000000000002 851.4000000000001,225.60000000000002 958,233 C 1064.6,240.39999999999998 1171.623076923077,207.79999999999998 1277,189 C 1382.376923076923,170.20000000000002 1486.1076923076923,165.2 1593,166 C 1699.8923076923077,166.8 1809.9461538461537,173.4 1920,180 C 1920,180 1920,1080 1920,1080 Z" fill="#9e9e9e" opacity="0.09999999999999999"/><path d="M 0,1080 C 0,1080 0,360 0,360 C 76.88461538461539,337.16153846153844 153.76923076923077,314.3230769230769 262,302 C 370.2307692307692,289.6769230769231 509.8076923076924,287.86923076923085 643,309 C 776.1923076923076,330.13076923076915 903,374.19999999999993 996,367 C 1089,359.80000000000007 1148.1923076923076,301.3307692307693 1244,302 C 1339.8076923076924,302.6692307692307 1472.2307692307693,362.4769230769231 1591,382 C 1709.7692307692307,401.5230769230769 1814.8846153846152,380.76153846153846 1920,360 C 1920,360 1920,1080 1920,1080 Z" fill="#9e9e9e" opacity="0.19999999999999998"/><path d="M 0,1080 C 0,1080 0,540 0,540 C 107.14615384615385,543.9051282051282 214.2923076923077,547.8102564102564 329,549 C 443.7076923076923,550.1897435897436 565.9769230769231,548.6641025641026 672,535 C 778.0230769230769,521.3358974358974 867.8000000000002,495.5333333333333 986,513 C 1104.1999999999998,530.4666666666667 1250.8230769230768,591.2025641025641 1338,604 C 1425.1769230769232,616.7974358974359 1452.9076923076923,581.6564102564103 1540,563 C 1627.0923076923077,544.3435897435897 1773.5461538461539,542.1717948717949 1920,540 C 1920,540 1920,1080 1920,1080 Z" fill="#9e9e9e" opacity="0.3"/><path d="M 0,1080 C 0,1080 0,720 0,720 C 109.72820512820513,744.4794871794871 219.45641025641027,768.9589743589743 310,775 C 400.54358974358973,781.0410256410257 471.90256410256427,768.6435897435898 589,767 C 706.0974358974357,765.3564102564102 868.9333333333332,774.4666666666666 988,752 C 1107.0666666666668,729.5333333333334 1182.3641025641027,675.4897435897436 1292,679 C 1401.6358974358973,682.5102564102564 1545.6102564102564,743.574358974359 1656,760 C 1766.3897435897436,776.425641025641 1843.1948717948717,748.2128205128205 1920,720 C 1920,720 1920,1080 1920,1080 Z" fill="#9e9e9e" opacity="0.39999999999999997"/><path d="M 0,1080 C 0,1080 0,900 0,900 C 85.90769230769232,889.0256410256411 171.81538461538463,878.0512820512821 265,889 C 358.18461538461537,899.9487179487179 458.64615384615377,932.8205128205127 585,935 C 711.3538461538462,937.1794871794873 863.6000000000001,908.6666666666667 976,891 C 1088.3999999999999,873.3333333333333 1160.9538461538461,866.5128205128206 1262,860 C 1363.0461538461539,853.4871794871794 1492.5846153846155,847.2820512820513 1607,854 C 1721.4153846153845,860.7179487179487 1820.7076923076922,880.3589743589744 1920,900 C 1920,900 1920,1080 1920,1080 Z" fill="#9e9e9e" opacity="0.49999999999999994"/></svg>