<svg width="1920" height="1080" viewBox="0 0 1920 1080" xmlns="http://www.w3.org/2000/svg"><rect width="1920" height="1080" fill="#f6f5f4"/><path d="M1920,1080C1602,1123.6666666666667,274.3333333333333,1125.8333333333333,0,1080C-274.3333333333333,1034.1666666666667,184.5,864.8333333333334,274,805C363.5,745.1666666666666,446,702.6666666666666,537,721C628,739.3333333333334,728,888.6666666666666,820,915C912,941.3333333333334,999.5,859,1089,879C1178.5,899,1265.1666666666667,1018,1357,1035C1448.8333333333333,1052,1548.1666666666667,1017.1666666666666,1640,981C1731.8333333333333,944.8333333333334,1861.3333333333333,801.5,1908,818C1954.6666666666667,834.5,2238,1036.3333333333333,1920,1080C1602,1123.6666666666667,274.3333333333333,1125.8333333333333,0,1080" fill="#2ec27e"/></svg>