<svg width="1920" height="1080" viewBox="0 0 1920 1080" xmlns="http://www.w3.org/2000/svg"><rect width="1920" height="1080" fill="#ededed"/><path d="M1920,1080C1602.3333333333333,1105,275.1666666666667,1099.1666666666667,0,1080C-275.1666666666667,1060.8333333333333,178.33333333333331,1003.8333333333334,269,965C359.6666666666667,926.1666666666666,452.3333333333333,842,544,847C635.6666666666666,852,728.8333333333334,981.8333333333334,819,995C909.1666666666666,1008.1666666666666,994.6666666666666,942.1666666666666,1085,926C1175.3333333333333,909.8333333333334,1267.6666666666667,893,1361,898C1454.3333333333333,903,1554.1666666666667,950.6666666666666,1645,956C1735.8333333333333,961.3333333333334,1860.1666666666667,909.3333333333334,1906,930C1951.8333333333333,950.6666666666666,2237.6666666666665,1055,1920,1080C1602.3333333333333,1105,275.1666666666667,1099.1666666666667,0,1080" fill="#c9c9c9"/></svg>