<svg width="1920" height="1080" viewBox="0 0 1920 1080" xmlns="http://www.w3.org/2000/svg"><path d="M1920,1080C1601.8333333333333,1114.3333333333333,275.8333333333333,1107.5,0,1080C-275.8333333333333,1052.5,174.33333333333331,962.3333333333334,265,915C355.6666666666667,867.6666666666666,452.3333333333333,790.8333333333334,544,796C635.6666666666666,801.1666666666666,723.5,909.6666666666666,815,946C906.5,982.3333333333334,1002.3333333333334,1013.8333333333334,1093,1014C1183.6666666666667,1014.1666666666666,1267.6666666666667,984.3333333333334,1359,947C1450.3333333333333,909.6666666666666,1549.3333333333333,802.1666666666666,1641,790C1732.6666666666667,777.8333333333334,1862.5,825.6666666666666,1909,874C1955.5,922.3333333333334,2238.1666666666665,1045.6666666666667,1920,1080C1601.8333333333333,1114.3333333333333,275.8333333333333,1107.5,0,1080" fill="#2ec27e"/></svg>